<mxfile host="app.diagrams.net" agent="Mozilla/5.0 (Windows NT 10.0; Win64; x64) AppleWebKit/537.36 (KHTML, like Gecko) Chrome/138.0.0.0 Safari/537.36" version="28.0.7">
  <diagram name="Page-1" id="r-450S9uEECsFyFizqMV">
    <mxGraphModel dx="1489" dy="1903" grid="1" gridSize="10" guides="1" tooltips="1" connect="1" arrows="1" fold="1" page="1" pageScale="1" pageWidth="850" pageHeight="1100" math="0" shadow="0">
      <root>
        <mxCell id="0" />
        <mxCell id="1" parent="0" />
        <mxCell id="BQ7E9jeWcxG6lYgOLACy-50" style="edgeStyle=orthogonalEdgeStyle;rounded=0;orthogonalLoop=1;jettySize=auto;html=1;exitX=0.5;exitY=1;exitDx=0;exitDy=0;entryX=0.5;entryY=0;entryDx=0;entryDy=0;" edge="1" parent="1" source="BQ7E9jeWcxG6lYgOLACy-1" target="BQ7E9jeWcxG6lYgOLACy-7">
          <mxGeometry relative="1" as="geometry" />
        </mxCell>
        <mxCell id="BQ7E9jeWcxG6lYgOLACy-1" value="PHASE7&lt;div&gt;CALCULATE THE COST OF THE DEVELOPING YOUR APP AT PHASE SEVEN&lt;/div&gt;" style="ellipse;whiteSpace=wrap;html=1;aspect=fixed;fillColor=#dae8fc;gradientColor=#7ea6e0;strokeColor=#6c8ebf;fontStyle=3;fontSize=13;" vertex="1" parent="1">
          <mxGeometry x="340" y="-1080" width="160" height="160" as="geometry" />
        </mxCell>
        <mxCell id="BQ7E9jeWcxG6lYgOLACy-4" value="PHASE1&lt;div&gt;RESEARCH &amp;amp; NICHE ANALYSIS&lt;/div&gt;" style="ellipse;whiteSpace=wrap;html=1;aspect=fixed;fillColor=#d5e8d4;gradientColor=#97d077;strokeColor=#82b366;fontStyle=3;fontSize=17;" vertex="1" parent="1">
          <mxGeometry x="620" y="-877" width="160" height="160" as="geometry" />
        </mxCell>
        <mxCell id="BQ7E9jeWcxG6lYgOLACy-6" value="PHASE6&lt;br&gt;SELECT A TECH STACK FOR&amp;nbsp; YOUR FOOD DELIVERY APP" style="ellipse;whiteSpace=wrap;html=1;aspect=fixed;fillColor=#f5f5f5;gradientColor=#b3b3b3;strokeColor=#666666;fontSize=15;fontStyle=3" vertex="1" parent="1">
          <mxGeometry x="60" y="-890" width="160" height="160" as="geometry" />
        </mxCell>
        <mxCell id="BQ7E9jeWcxG6lYgOLACy-7" value="7 PHASES OF DEVELOPING A FOOD DELIVERY APP" style="ellipse;whiteSpace=wrap;html=1;aspect=fixed;fillColor=#ffe6cc;strokeColor=#d79b00;fontSize=15;fontStyle=3" vertex="1" parent="1">
          <mxGeometry x="335" y="-770" width="170" height="170" as="geometry" />
        </mxCell>
        <mxCell id="BQ7E9jeWcxG6lYgOLACy-8" value="PHASE5&lt;div&gt;SELECT A TECH STACK FOR YOUR FOOD DELIVERY APP&lt;/div&gt;" style="ellipse;whiteSpace=wrap;html=1;aspect=fixed;fillColor=#b0e3e6;strokeColor=#0e8088;fontStyle=3;fontSize=14;" vertex="1" parent="1">
          <mxGeometry x="70" y="-650" width="160" height="160" as="geometry" />
        </mxCell>
        <mxCell id="BQ7E9jeWcxG6lYgOLACy-11" value="PHASE4&lt;div&gt;SELECT THE FEATURES OF YOUR APPLICATION&lt;/div&gt;" style="ellipse;whiteSpace=wrap;html=1;aspect=fixed;fillColor=#f8cecc;gradientColor=#ea6b66;strokeColor=#b85450;fontSize=14;fontStyle=3" vertex="1" parent="1">
          <mxGeometry x="211" y="-450" width="160" height="160" as="geometry" />
        </mxCell>
        <mxCell id="BQ7E9jeWcxG6lYgOLACy-12" value="PHASE3&lt;div&gt;INCREASE APP REVENUE&lt;/div&gt;" style="ellipse;whiteSpace=wrap;html=1;aspect=fixed;fillColor=#fff2cc;gradientColor=#ffd966;strokeColor=#d6b656;fontStyle=3;fontSize=16;" vertex="1" parent="1">
          <mxGeometry x="450" y="-460" width="160" height="160" as="geometry" />
        </mxCell>
        <mxCell id="BQ7E9jeWcxG6lYgOLACy-13" value="PHASE 2&amp;nbsp;&lt;div&gt;UNDERSTAND YOUR BUSINESS MODEL&lt;/div&gt;" style="ellipse;whiteSpace=wrap;html=1;aspect=fixed;fillColor=#ffcd28;gradientColor=#ffa500;strokeColor=#d79b00;fontStyle=3;fontSize=14;" vertex="1" parent="1">
          <mxGeometry x="632" y="-620" width="160" height="160" as="geometry" />
        </mxCell>
        <mxCell id="BQ7E9jeWcxG6lYgOLACy-31" value="" style="html=1;shadow=0;dashed=0;align=center;verticalAlign=middle;shape=mxgraph.arrows2.bendArrow;dy=15;dx=38;notch=0;arrowHead=55;rounded=1;direction=north;fillColor=#e6d0de;gradientColor=#d5739d;strokeColor=#996185;" vertex="1" parent="1">
          <mxGeometry x="120" y="-490" width="100" height="100" as="geometry" />
        </mxCell>
        <mxCell id="BQ7E9jeWcxG6lYgOLACy-32" value="" style="html=1;shadow=0;dashed=0;align=center;verticalAlign=middle;shape=mxgraph.arrows2.bendArrow;dy=15;dx=38;notch=0;arrowHead=55;rounded=1;direction=west;fillColor=#e6d0de;gradientColor=#d5739d;strokeColor=#996185;" vertex="1" parent="1">
          <mxGeometry x="610" y="-450" width="100" height="100" as="geometry" />
        </mxCell>
        <mxCell id="BQ7E9jeWcxG6lYgOLACy-34" value="" style="html=1;shadow=0;dashed=0;align=center;verticalAlign=middle;shape=mxgraph.arrows2.bendArrow;dy=15;dx=38;notch=0;arrowHead=55;rounded=1;fillColor=#e6d0de;gradientColor=#d5739d;strokeColor=#996185;" vertex="1" parent="1">
          <mxGeometry x="124" y="-1020" width="220" height="130" as="geometry" />
        </mxCell>
        <mxCell id="BQ7E9jeWcxG6lYgOLACy-36" value="" style="html=1;shadow=0;dashed=0;align=center;verticalAlign=middle;shape=mxgraph.arrows2.bendArrow;dy=15;dx=38;notch=0;arrowHead=55;rounded=1;direction=south;fillColor=#e6d0de;gradientColor=#d5739d;strokeColor=#996185;" vertex="1" parent="1">
          <mxGeometry x="504" y="-1011" width="225" height="130" as="geometry" />
        </mxCell>
        <mxCell id="BQ7E9jeWcxG6lYgOLACy-37" value="" style="html=1;shadow=0;dashed=0;align=center;verticalAlign=middle;shape=mxgraph.arrows2.twoWayArrow;dy=0.6;dx=35;direction=south;fillColor=#e6d0de;gradientColor=#d5739d;strokeColor=#996185;" vertex="1" parent="1">
          <mxGeometry x="110" y="-733" width="60" height="90" as="geometry" />
        </mxCell>
        <mxCell id="BQ7E9jeWcxG6lYgOLACy-38" value="" style="html=1;shadow=0;dashed=0;align=center;verticalAlign=middle;shape=mxgraph.arrows2.twoWayArrow;dy=0.45;dx=29.09;direction=south;fillColor=#e6d0de;gradientColor=#d5739d;strokeColor=#996185;" vertex="1" parent="1">
          <mxGeometry x="682" y="-717" width="60" height="90" as="geometry" />
        </mxCell>
        <mxCell id="BQ7E9jeWcxG6lYgOLACy-39" value="" style="html=1;shadow=0;dashed=0;align=center;verticalAlign=middle;shape=mxgraph.arrows2.twoWayArrow;dy=0.6;dx=35;direction=west;fillColor=#e6d0de;gradientColor=#d5739d;strokeColor=#996185;" vertex="1" parent="1">
          <mxGeometry x="360" y="-400" width="90" height="60" as="geometry" />
        </mxCell>
        <mxCell id="BQ7E9jeWcxG6lYgOLACy-52" value="" style="endArrow=classic;html=1;rounded=0;entryX=0;entryY=0;entryDx=0;entryDy=0;exitX=0.965;exitY=0.28;exitDx=0;exitDy=0;exitPerimeter=0;" edge="1" parent="1" source="BQ7E9jeWcxG6lYgOLACy-6" target="BQ7E9jeWcxG6lYgOLACy-7">
          <mxGeometry width="50" height="50" relative="1" as="geometry">
            <mxPoint x="20" y="-610" as="sourcePoint" />
            <mxPoint x="70" y="-660" as="targetPoint" />
          </mxGeometry>
        </mxCell>
        <mxCell id="BQ7E9jeWcxG6lYgOLACy-53" value="" style="endArrow=classic;html=1;rounded=0;entryX=0.025;entryY=0.661;entryDx=0;entryDy=0;entryPerimeter=0;exitX=1;exitY=0.5;exitDx=0;exitDy=0;" edge="1" parent="1" source="BQ7E9jeWcxG6lYgOLACy-8" target="BQ7E9jeWcxG6lYgOLACy-7">
          <mxGeometry width="50" height="50" relative="1" as="geometry">
            <mxPoint x="20" y="-610" as="sourcePoint" />
            <mxPoint x="70" y="-660" as="targetPoint" />
          </mxGeometry>
        </mxCell>
        <mxCell id="BQ7E9jeWcxG6lYgOLACy-55" value="" style="endArrow=classic;html=1;rounded=0;" edge="1" parent="1" source="BQ7E9jeWcxG6lYgOLACy-11">
          <mxGeometry width="50" height="50" relative="1" as="geometry">
            <mxPoint x="20" y="-610" as="sourcePoint" />
            <mxPoint x="400" y="-610" as="targetPoint" />
          </mxGeometry>
        </mxCell>
        <mxCell id="BQ7E9jeWcxG6lYgOLACy-56" value="" style="endArrow=classic;html=1;rounded=0;entryX=0.752;entryY=0.96;entryDx=0;entryDy=0;exitX=1;exitY=0;exitDx=0;exitDy=0;entryPerimeter=0;" edge="1" parent="1" source="BQ7E9jeWcxG6lYgOLACy-12" target="BQ7E9jeWcxG6lYgOLACy-7">
          <mxGeometry width="50" height="50" relative="1" as="geometry">
            <mxPoint x="20" y="-610" as="sourcePoint" />
            <mxPoint x="70" y="-660" as="targetPoint" />
          </mxGeometry>
        </mxCell>
        <mxCell id="BQ7E9jeWcxG6lYgOLACy-57" value="" style="endArrow=classic;html=1;rounded=0;entryX=1;entryY=0;entryDx=0;entryDy=0;exitX=0.072;exitY=0.28;exitDx=0;exitDy=0;exitPerimeter=0;" edge="1" parent="1" source="BQ7E9jeWcxG6lYgOLACy-4" target="BQ7E9jeWcxG6lYgOLACy-7">
          <mxGeometry width="50" height="50" relative="1" as="geometry">
            <mxPoint x="20" y="-610" as="sourcePoint" />
            <mxPoint x="70" y="-660" as="targetPoint" />
          </mxGeometry>
        </mxCell>
        <mxCell id="BQ7E9jeWcxG6lYgOLACy-58" value="" style="endArrow=classic;html=1;rounded=0;entryX=0.974;entryY=0.67;entryDx=0;entryDy=0;entryPerimeter=0;" edge="1" parent="1" source="BQ7E9jeWcxG6lYgOLACy-13" target="BQ7E9jeWcxG6lYgOLACy-7">
          <mxGeometry width="50" height="50" relative="1" as="geometry">
            <mxPoint x="20" y="-610" as="sourcePoint" />
            <mxPoint x="70" y="-660" as="targetPoint" />
          </mxGeometry>
        </mxCell>
      </root>
    </mxGraphModel>
  </diagram>
</mxfile>
